<?xml version="1.0" encoding="UTF-8" standalone="no"?>
<!-- Created with Inkscape (http://www.inkscape.org/) -->

<svg
   xmlns:dc="http://purl.org/dc/elements/1.1/"
   xmlns:cc="http://creativecommons.org/ns#"
   xmlns:rdf="http://www.w3.org/1999/02/22-rdf-syntax-ns#"
   xmlns:svg="http://www.w3.org/2000/svg"
   xmlns="http://www.w3.org/2000/svg"
   xmlns:sodipodi="http://sodipodi.sourceforge.net/DTD/sodipodi-0.dtd"
   xmlns:inkscape="http://www.inkscape.org/namespaces/inkscape"
   width="210mm"
   height="297mm"
   viewBox="0 0 210 297"
   version="1.1"
   id="svg8"
   inkscape:version="0.92.1 r15371"
   sodipodi:docname="rocks.svg">
  <defs
     id="defs2" />
  <sodipodi:namedview
     id="base"
     pagecolor="#ffffff"
     bordercolor="#666666"
     borderopacity="1.0"
     inkscape:pageopacity="0.0"
     inkscape:pageshadow="2"
     inkscape:zoom="0.74101562"
     inkscape:cx="419.99761"
     inkscape:cy="408.30177"
     inkscape:document-units="mm"
     inkscape:current-layer="layer1"
     showgrid="false"
     inkscape:snap-global="false"
     inkscape:window-width="1366"
     inkscape:window-height="705"
     inkscape:window-x="-8"
     inkscape:window-y="-8"
     inkscape:window-maximized="1" />
  <metadata
     id="metadata5">
    <rdf:RDF>
      <cc:Work
         rdf:about="">
        <dc:format>image/svg+xml</dc:format>
        <dc:type
           rdf:resource="http://purl.org/dc/dcmitype/StillImage" />
        <dc:title></dc:title>
      </cc:Work>
    </rdf:RDF>
  </metadata>
  <g
     inkscape:label="Layer 1"
     inkscape:groupmode="layer"
     id="layer1">
    <path
       sodipodi:type="star"
       style="opacity:1;fill:#4d4d4d;fill-opacity:1;fill-rule:evenodd;stroke:none;stroke-width:0.39399999;stroke-miterlimit:4;stroke-dasharray:none;stroke-opacity:0.52653061"
       id="path4485"
       sodipodi:sides="5"
       sodipodi:cx="67.126343"
       sodipodi:cy="29.565805"
       sodipodi:r1="41.298161"
       sodipodi:r2="33.410915"
       sodipodi:arg1="0.99478356"
       sodipodi:arg2="1.6231021"
       inkscape:flatsided="true"
       inkscape:rounded="0.25"
       inkscape:randomized="0.026"
       d="M 89.267017,64.739052 C 79.327153,71.510034 49.780875,69.359516 40.49084,61.497628 31.200804,53.63574 24.686888,25.732917 29.192819,14.59027 33.69875,3.4476222 56.418215,-11.189984 68.53214,-10.743768 c 12.113926,0.446215 36.54027,17.8980394 39.40043,29.590503 2.86016,11.692464 -8.725688,39.121335 -18.665553,45.892317 z"
       inkscape:transform-center-x="-0.16144083"
       inkscape:transform-center-y="-0.48961165"
       transform="matrix(0.4995072,0,0,0.53055026,50.305866,33.441253)"
       inkscape:export-xdpi="64"
       inkscape:export-ydpi="64" />
    <path
       style="opacity:1;fill:#808080;fill-opacity:1;fill-rule:evenodd;stroke:none;stroke-width:0.16806602;stroke-miterlimit:4;stroke-dasharray:none;stroke-opacity:0.52653061"
       inkscape:transform-center-x="-0.11084639"
       inkscape:transform-center-y="-0.48961216"
       d="m 95.045923,67.220266 c -3.432506,2.944094 -18.594899,3.869566 -24.751029,-2.09861 -3.786456,-3.670845 -0.91947,-18.027797 0.625875,-23.939532 1.545344,-5.911736 9.337166,-13.67772 13.491734,-13.440981 4.154567,0.23674 18.582197,9.687581 19.578757,15.888685 1.22144,7.600618 -5.794422,20.887856 -8.945337,23.590438 z"
       id="path4487"
       inkscape:connector-curvature="0"
       sodipodi:nodetypes="ssssss"
       inkscape:export-xdpi="64"
       inkscape:export-ydpi="64" />
    <path
       transform="matrix(0.37090399,0,0.25934299,0.3939547,50.903702,56.159092)"
       inkscape:transform-center-y="-0.36355697"
       inkscape:transform-center-x="0.41848288"
       d="M 89.267017,64.739052 C 79.327153,71.510034 49.780875,69.359516 40.49084,61.497628 31.200804,53.63574 24.686888,25.732917 29.192819,14.59027 33.69875,3.4476222 56.418215,-11.189984 68.53214,-10.743768 c 12.113926,0.446215 36.54027,17.8980394 39.40043,29.590503 2.86016,11.692464 -8.725688,39.121335 -18.665553,45.892317 z"
       inkscape:randomized="0.026"
       inkscape:rounded="0.25"
       inkscape:flatsided="true"
       sodipodi:arg2="1.6231021"
       sodipodi:arg1="0.99478356"
       sodipodi:r2="33.410915"
       sodipodi:r1="41.298161"
       sodipodi:cy="29.565805"
       sodipodi:cx="67.126343"
       sodipodi:sides="5"
       id="path4490"
       style="opacity:1;fill:#4d4d4d;fill-opacity:1;fill-rule:evenodd;stroke:none;stroke-width:0.39399999;stroke-miterlimit:4;stroke-dasharray:none;stroke-opacity:0.52653061"
       sodipodi:type="star"
       inkscape:export-xdpi="64"
       inkscape:export-ydpi="64" />
    <path
       sodipodi:nodetypes="ssssss"
       inkscape:connector-curvature="0"
       id="path4492"
       d="M 100.6368,81.241355 C 99.527147,83.427469 88.720861,84.114652 81.232331,79.683057 76.62636,76.957302 71.737263,66.296696 69.994975,61.906998 c -1.742286,-4.389699 0.24729,-10.156252 3.447945,-9.980464 3.200655,0.175789 18.533501,7.193413 22.304689,11.797981 4.622311,5.643762 5.907801,15.510059 4.889191,17.51684 z"
       inkscape:transform-center-y="-0.3635568"
       inkscape:transform-center-x="0.039404031"
       style="opacity:1;fill:#808080;fill-opacity:1;fill-rule:evenodd;stroke:none;stroke-width:0.12479571;stroke-miterlimit:4;stroke-dasharray:none;stroke-opacity:0.52653061"
       inkscape:export-xdpi="64"
       inkscape:export-ydpi="64" />
    <path
       transform="matrix(-0.49602599,0,0,0.53260639,207.49682,27.107312)"
       inkscape:transform-center-y="-0.4915095"
       inkscape:transform-center-x="0.16030788"
       d="M 89.267017,64.739052 C 79.327153,71.510034 49.780875,69.359516 40.49084,61.497628 31.200804,53.63574 24.686888,25.732917 29.192819,14.59027 33.69875,3.4476222 56.418215,-11.189984 68.53214,-10.743768 c 12.113926,0.446215 36.54027,17.8980394 39.40043,29.590503 2.86016,11.692464 -8.725688,39.121335 -18.665553,45.892317 z"
       inkscape:randomized="0.026"
       inkscape:rounded="0.25"
       inkscape:flatsided="true"
       sodipodi:arg2="1.6231021"
       sodipodi:arg1="0.99478356"
       sodipodi:r2="33.410915"
       sodipodi:r1="41.298161"
       sodipodi:cy="29.565805"
       sodipodi:cx="67.126343"
       sodipodi:sides="5"
       id="path4494"
       style="opacity:1;fill:#4d4d4d;fill-opacity:1;fill-rule:evenodd;stroke:none;stroke-width:0.39399999;stroke-miterlimit:4;stroke-dasharray:none;stroke-opacity:0.52653061"
       sodipodi:type="star"
       inkscape:export-xdpi="64"
       inkscape:export-ydpi="64" />
    <path
       sodipodi:nodetypes="ssssss"
       inkscape:connector-curvature="0"
       id="path4496"
       d="m 163.06857,61.017235 c 3.40857,2.955501 18.4653,3.884561 24.57853,-2.106744 3.76006,-3.685072 0.91306,-18.097664 -0.62152,-24.032309 -1.53458,-5.934645 -9.2721,-13.730728 -13.39771,-13.493071 -4.12562,0.237659 -18.45269,9.725125 -19.4423,15.950261 -1.21293,7.630074 5.75403,20.968806 8.883,23.681863 z"
       inkscape:transform-center-y="-0.49151078"
       inkscape:transform-center-x="0.11007354"
       style="opacity:1;fill:#808080;fill-opacity:1;fill-rule:evenodd;stroke:none;stroke-width:0.16780356;stroke-miterlimit:4;stroke-dasharray:none;stroke-opacity:0.52653061"
       inkscape:export-xdpi="64"
       inkscape:export-ydpi="64" />
    <path
       sodipodi:type="star"
       style="opacity:1;fill:#4d4d4d;fill-opacity:1;fill-rule:evenodd;stroke:none;stroke-width:0.39399999;stroke-miterlimit:4;stroke-dasharray:none;stroke-opacity:0.52653061"
       id="path4498"
       sodipodi:sides="5"
       sodipodi:cx="67.126343"
       sodipodi:cy="29.565805"
       sodipodi:r1="41.298161"
       sodipodi:r2="33.410915"
       sodipodi:arg1="0.99478356"
       sodipodi:arg2="1.6231021"
       inkscape:flatsided="true"
       inkscape:rounded="0.25"
       inkscape:randomized="0.026"
       d="M 89.267017,64.739052 C 79.327153,71.510034 49.780875,69.359516 40.49084,61.497628 31.200804,53.63574 24.686888,25.732917 29.192819,14.59027 33.69875,3.4476222 56.418215,-11.189984 68.53214,-10.743768 c 12.113926,0.446215 36.54027,17.8980394 39.40043,29.590503 2.86016,11.692464 -8.725688,39.121335 -18.665553,45.892317 z"
       inkscape:transform-center-x="-0.41557105"
       inkscape:transform-center-y="-0.36496455"
       transform="matrix(-0.36831905,0,-0.25753555,0.39548147,206.90314,49.913195)"
       inkscape:export-xdpi="64"
       inkscape:export-ydpi="64" />
    <path
       style="opacity:1;fill:#808080;fill-opacity:1;fill-rule:evenodd;stroke:none;stroke-width:0.12460084;stroke-miterlimit:4;stroke-dasharray:none;stroke-opacity:0.52653061"
       inkscape:transform-center-x="-0.039142422"
       inkscape:transform-center-y="-0.36496583"
       d="m 157.51666,75.092665 c 1.1019,2.194583 11.83288,2.884439 19.26922,-1.564346 4.57387,-2.736306 9.42891,-13.438233 11.15905,-17.844943 1.73014,-4.406711 -0.24557,-10.195613 -3.42393,-10.019143 -3.17834,0.17647 -18.40433,7.221292 -22.14924,11.843704 -4.59008,5.665634 -5.86661,15.570175 -4.8551,17.584728 z"
       id="path4500"
       inkscape:connector-curvature="0"
       sodipodi:nodetypes="ssssss"
       inkscape:export-xdpi="64"
       inkscape:export-ydpi="64" />
    <path
       sodipodi:type="star"
       style="opacity:1;fill:#4d4d4d;fill-opacity:1;fill-rule:evenodd;stroke:none;stroke-width:0.39399999;stroke-miterlimit:4;stroke-dasharray:none;stroke-opacity:0.52653061"
       id="path4502"
       sodipodi:sides="5"
       sodipodi:cx="67.126343"
       sodipodi:cy="29.565805"
       sodipodi:r1="41.298161"
       sodipodi:r2="33.410915"
       sodipodi:arg1="0.99478356"
       sodipodi:arg2="1.6231021"
       inkscape:flatsided="true"
       inkscape:rounded="0.25"
       inkscape:randomized="0.026"
       d="M 89.267017,64.739052 C 79.327153,71.510034 49.780875,69.359516 40.49084,61.497628 31.200804,53.63574 24.686888,25.732917 29.192819,14.59027 33.69875,3.4476222 56.418215,-11.189984 68.53214,-10.743768 c 12.113926,0.446215 36.54027,17.8980394 39.40043,29.590503 2.86016,11.692464 -8.725688,39.121335 -18.665553,45.892317 z"
       inkscape:transform-center-x="-0.16030576"
       inkscape:transform-center-y="0.49148677"
       transform="matrix(0.49600441,0,0,-0.53257936,30.72768,263.84217)"
       inkscape:export-xdpi="64"
       inkscape:export-ydpi="64" />
    <path
       style="opacity:1;fill:#808080;fill-opacity:1;fill-rule:evenodd;stroke:none;stroke-width:0.16779564;stroke-miterlimit:4;stroke-dasharray:none;stroke-opacity:0.52653061"
       inkscape:transform-center-x="-0.11006867"
       inkscape:transform-center-y="0.49148859"
       d="m 75.153996,229.93397 c -3.408435,-2.95535 -18.4645,-3.88436 -24.57746,2.10664 -3.759904,3.68488 -0.913023,18.09673 0.621484,24.03109 1.534514,5.93433 9.271695,13.73003 13.397128,13.49238 4.125432,-0.23764 18.451889,-9.72462 19.441455,-15.94945 1.212874,-7.62969 -5.753778,-20.96775 -8.882607,-23.68066 z"
       id="path4504"
       inkscape:connector-curvature="0"
       sodipodi:nodetypes="ssssss"
       inkscape:export-xdpi="64"
       inkscape:export-ydpi="64" />
    <path
       transform="matrix(0.36830304,0,-0.10506932,-0.39546139,42.177645,241.03745)"
       inkscape:transform-center-y="0.36495424"
       inkscape:transform-center-x="-0.47399669"
       d="M 89.267017,64.739052 C 79.327153,71.510034 49.780875,69.359516 40.49084,61.497628 31.200804,53.63574 24.686888,25.732917 29.192819,14.59027 33.69875,3.4476222 56.418215,-11.189984 68.53214,-10.743768 c 12.113926,0.446215 36.54027,17.8980394 39.40043,29.590503 2.86016,11.692464 -8.725688,39.121335 -18.665553,45.892317 z"
       inkscape:randomized="0.026"
       inkscape:rounded="0.25"
       inkscape:flatsided="true"
       sodipodi:arg2="1.6231021"
       sodipodi:arg1="0.99478356"
       sodipodi:r2="33.410915"
       sodipodi:r1="41.298161"
       sodipodi:cy="29.565805"
       sodipodi:cx="67.126343"
       sodipodi:sides="5"
       id="path4506"
       style="opacity:1;fill:#4d4d4d;fill-opacity:1;fill-rule:evenodd;stroke:none;stroke-width:0.39399999;stroke-miterlimit:4;stroke-dasharray:none;stroke-opacity:0.52653061"
       sodipodi:type="star"
       inkscape:export-xdpi="64"
       inkscape:export-ydpi="64" />
    <path
       sodipodi:nodetypes="ssssss"
       inkscape:connector-curvature="0"
       id="path4508"
       d="m 68.476411,215.85925 c -3.113947,-2.19447 -14.476946,-2.88429 -17.834137,1.56427 -2.064913,2.73617 2.892238,13.43754 5.202422,17.84404 2.310184,4.40648 9.593314,10.19509 12.609725,10.01863 3.01642,-0.17647 11.782763,-7.22093 11.289496,-11.8431 -0.604597,-5.66534 -8.409011,-15.56939 -11.267506,-17.58384 z"
       inkscape:transform-center-y="0.36494906"
       inkscape:transform-center-x="0.5557606"
       style="opacity:1;fill:#808080;fill-opacity:1;fill-rule:evenodd;stroke:none;stroke-width:0.12459495;stroke-miterlimit:4;stroke-dasharray:none;stroke-opacity:0.52653061"
       inkscape:export-xdpi="64"
       inkscape:export-ydpi="64" />
    <path
       transform="matrix(-0.49600441,0,0,-0.53257936,191.78492,264.91334)"
       inkscape:transform-center-y="0.49148677"
       inkscape:transform-center-x="0.16030573"
       d="M 89.267017,64.739052 C 79.327153,71.510034 49.780875,69.359516 40.49084,61.497628 31.200804,53.63574 24.686888,25.732917 29.192819,14.59027 33.69875,3.4476222 56.418215,-11.189984 68.53214,-10.743768 c 12.113926,0.446215 36.54027,17.8980394 39.40043,29.590503 2.86016,11.692464 -8.725688,39.121335 -18.665553,45.892317 z"
       inkscape:randomized="0.026"
       inkscape:rounded="0.25"
       inkscape:flatsided="true"
       sodipodi:arg2="1.6231021"
       sodipodi:arg1="0.99478356"
       sodipodi:r2="33.410915"
       sodipodi:r1="41.298161"
       sodipodi:cy="29.565805"
       sodipodi:cx="67.126343"
       sodipodi:sides="5"
       id="path4526"
       style="opacity:1;fill:#4d4d4d;fill-opacity:1;fill-rule:evenodd;stroke:none;stroke-width:0.39399999;stroke-miterlimit:4;stroke-dasharray:none;stroke-opacity:0.52653061"
       sodipodi:type="star"
       inkscape:export-xdpi="64"
       inkscape:export-ydpi="64" />
    <path
       sodipodi:nodetypes="ssssss"
       inkscape:connector-curvature="0"
       id="path4528"
       d="m 147.3586,231.00514 c 3.40843,-2.95535 18.4645,-3.88436 24.57746,2.10664 3.7599,3.68488 0.91302,18.09673 -0.62148,24.03109 -1.53452,5.93433 -9.2717,13.73003 -13.39713,13.49238 -4.12543,-0.23764 -18.45189,-9.72462 -19.44146,-15.94945 -1.21287,-7.62969 5.75378,-20.96775 8.88261,-23.68066 z"
       inkscape:transform-center-y="0.49148859"
       inkscape:transform-center-x="0.11006864"
       style="opacity:1;fill:#808080;fill-opacity:1;fill-rule:evenodd;stroke:none;stroke-width:0.16779564;stroke-miterlimit:4;stroke-dasharray:none;stroke-opacity:0.52653061"
       inkscape:export-xdpi="64"
       inkscape:export-ydpi="64" />
    <path
       sodipodi:type="star"
       style="opacity:1;fill:#4d4d4d;fill-opacity:1;fill-rule:evenodd;stroke:none;stroke-width:0.39399999;stroke-miterlimit:4;stroke-dasharray:none;stroke-opacity:0.52653061"
       id="path4530"
       sodipodi:sides="5"
       sodipodi:cx="67.126343"
       sodipodi:cy="29.565805"
       sodipodi:r1="41.298161"
       sodipodi:r2="33.410915"
       sodipodi:arg1="0.99478356"
       sodipodi:arg2="1.6231021"
       inkscape:flatsided="true"
       inkscape:rounded="0.25"
       inkscape:randomized="0.026"
       d="M 89.267017,64.739052 C 79.327153,71.510034 49.780875,69.359516 40.49084,61.497628 31.200804,53.63574 24.686888,25.732917 29.192819,14.59027 33.69875,3.4476222 56.418215,-11.189984 68.53214,-10.743768 c 12.113926,0.446215 36.54027,17.8980394 39.40043,29.590503 2.86016,11.692464 -8.725688,39.121335 -18.665553,45.892317 z"
       inkscape:transform-center-x="0.47399666"
       inkscape:transform-center-y="0.36495424"
       transform="matrix(-0.36830304,0,0.10506932,-0.39546139,180.33495,242.10862)"
       inkscape:export-xdpi="64"
       inkscape:export-ydpi="64" />
    <path
       style="opacity:1;fill:#808080;fill-opacity:1;fill-rule:evenodd;stroke:none;stroke-width:0.12459495;stroke-miterlimit:4;stroke-dasharray:none;stroke-opacity:0.52653061"
       inkscape:transform-center-x="-0.55576063"
       inkscape:transform-center-y="0.36494906"
       d="m 154.03618,216.93042 c 3.11395,-2.19447 14.47695,-2.88429 17.83414,1.56427 2.06491,2.73617 -2.89224,13.43754 -5.20242,17.84404 -2.31018,4.40648 -9.59331,10.19509 -12.60973,10.01863 -3.01642,-0.17647 -11.78276,-7.22093 -11.28949,-11.8431 0.6046,-5.66534 8.40901,-15.56939 11.2675,-17.58384 z"
       id="path4532"
       inkscape:connector-curvature="0"
       sodipodi:nodetypes="ssssss"
       inkscape:export-xdpi="64"
       inkscape:export-ydpi="64" />
  </g>
</svg>
